    <svg xmlns="http://www.w3.org/2000/svg" width="115" height="24" viewBox="0 0 613 128">
      <g fill="none" fillRule="evenodd" stroke="none" strokeWidth="1">
        <g fillRule="nonzero" transform="translate(-387 -1091)">
          <g transform="translate(387 1091)">
            <g>
              <path
                fill="#FA5B30"
                d="M20.956 45.264C36.14 18.704 43.732 5.424 54.039 1.73a29.526 29.526 0 0119.922 0c10.307 3.693 17.899 16.973 33.083 43.533 15.087 26.389 22.63 39.584 20.643 50.36a29.838 29.838 0 01-9.95 17.276C109.429 120 94.285 120 64 120c-30.286 0-45.429 0-53.737-7.1a29.838 29.838 0 01-9.95-17.276c-1.987-10.776 5.556-23.971 20.643-50.36z"
              ></path>
              <path
                fill="#FFF"
                d="M85.206 83.651c-7.336 11.76-11.004 17.64-15.872 19.411a15.643 15.643 0 01-10.668 0c-4.869-1.772-8.537-7.652-15.872-19.41-7.645-12.256-11.468-18.384-10.696-23.415.543-3.546 2.46-6.768 5.37-9.029C41.598 48 49.065 48 64 48s22.402 0 26.532 3.208c2.91 2.261 4.827 5.483 5.37 9.029.771 5.031-3.051 11.159-10.696 23.414z"
              ></path>
            </g>
            <path
              fill="#060C19"
              d="M185.59 105.03c2.7 0 5.079-.361 7.139-1.083 2.06-.722 3.823-1.728 5.29-3.019a15.17 15.17 0 003.517-4.492h.426V104h14.346V67.21c0-3.243-.627-6.03-1.882-8.363a16.157 16.157 0 00-5.131-5.735c-2.166-1.491-4.64-2.592-7.422-3.302s-5.688-1.066-8.718-1.066c-4.356 0-8.186.657-11.488 1.971-3.303 1.314-5.996 3.184-8.079 5.611-2.083 2.427-3.48 5.297-4.19 8.611l13.991 1.137c.521-1.8 1.586-3.297 3.196-4.492 1.61-1.196 3.776-1.794 6.499-1.794 2.58 0 4.575.616 5.983 1.847 1.41 1.231 2.113 2.971 2.113 5.22v.213c0 1.16-.438 2.036-1.314 2.628-.875.592-2.284 1.036-4.225 1.332-1.942.296-4.498.61-7.67.94-2.7.261-5.274.711-7.725 1.35-2.45.64-4.634 1.586-6.551 2.841-1.918 1.255-3.433 2.912-4.546 4.972-1.113 2.06-1.669 4.604-1.669 7.635 0 3.598.787 6.599 2.362 9.002 1.574 2.403 3.722 4.214 6.445 5.433 2.722 1.22 5.824 1.829 9.304 1.829zm4.333-10.44c-2.32 0-4.231-.54-5.735-1.616-1.503-1.077-2.255-2.646-2.255-4.706 0-1.42.367-2.61 1.101-3.568.734-.96 1.764-1.723 3.09-2.29 1.325-.57 2.876-.983 4.652-1.244.828-.118 1.751-.254 2.77-.408a68.688 68.688 0 003.053-.533 28.453 28.453 0 002.753-.675c.816-.248 1.461-.526 1.935-.834v5.788c0 1.918-.485 3.634-1.456 5.15-.97 1.515-2.308 2.716-4.013 3.604-1.704.888-3.67 1.331-5.895 1.331zm53.253 29.865v-29.19h.462c.686 1.514 1.68 3.012 2.983 4.491 1.302 1.48 2.977 2.705 5.025 3.676 2.047.97 4.54 1.456 7.475 1.456 4.143 0 7.89-1.071 11.239-3.214 3.35-2.143 6.001-5.303 7.955-9.482 1.953-4.178 2.93-9.31 2.93-15.394 0-6.25-1.007-11.452-3.02-15.607-2.012-4.155-4.699-7.268-8.06-9.34-3.362-2.07-7.032-3.107-11.009-3.107-3.054 0-5.605.515-7.653 1.545-2.047 1.03-3.705 2.308-4.971 3.835-1.267 1.527-2.231 3.025-2.894 4.492h-.675v-9.161h-14.915v75h15.128zm11.15-31.606c-2.438 0-4.51-.668-6.214-2.006-1.704-1.338-3.006-3.214-3.906-5.629-.9-2.414-1.35-5.243-1.35-8.487 0-3.243.45-6.06 1.35-8.451.9-2.392 2.196-4.238 3.888-5.54 1.693-1.302 3.77-1.953 6.233-1.953 2.485 0 4.58.674 6.285 2.024s2.995 3.22 3.87 5.61c.877 2.392 1.315 5.162 1.315 8.31 0 3.173-.444 5.972-1.332 8.399-.888 2.426-2.184 4.32-3.888 5.682-1.705 1.36-3.788 2.041-6.25 2.041zm44.596-50.426c2.249 0 4.172-.751 5.77-2.255 1.598-1.503 2.397-3.308 2.397-5.415 0-2.083-.799-3.877-2.397-5.38-1.598-1.503-3.533-2.255-5.806-2.255-2.225 0-4.143.752-5.753 2.255-1.61 1.503-2.414 3.297-2.414 5.38 0 2.107.805 3.912 2.414 5.415 1.61 1.504 3.54 2.255 5.789 2.255zM306.415 104V49.455h-15.128V104h15.128zm20.93.923c1.539 0 2.947-.384 4.226-1.154a9.128 9.128 0 003.107-3.09c.793-1.29 1.19-2.716 1.19-4.278 0-2.32-.853-4.31-2.557-5.966-1.705-1.658-3.693-2.486-5.966-2.486-2.344 0-4.35.828-6.02 2.486-1.668 1.657-2.503 3.645-2.503 5.966 0 2.343.835 4.35 2.504 6.019 1.669 1.669 3.675 2.503 6.019 2.503zm52.713-.923l19.07-54.545h-16.016l-11.293 39.027h-.568l-11.328-39.027h-15.98L363.013 104h17.045zm34.432-61.577c2.249 0 4.172-.751 5.77-2.255 1.598-1.503 2.397-3.308 2.397-5.415 0-2.083-.799-3.877-2.397-5.38-1.598-1.503-3.533-2.255-5.806-2.255-2.225 0-4.143.752-5.753 2.255-1.61 1.503-2.415 3.297-2.415 5.38 0 2.107.805 3.912 2.415 5.415 1.61 1.504 3.54 2.255 5.789 2.255zM421.982 104V49.455h-15.127V104h15.127zm32.188.888c2.935 0 5.427-.486 7.475-1.456s3.717-2.196 5.007-3.676c1.29-1.48 2.29-2.977 3-4.492h.64V104h14.915V31.273h-15.093v27.343h-.461c-.663-1.467-1.628-2.965-2.894-4.492-1.267-1.527-2.924-2.805-4.972-3.835-2.048-1.03-4.599-1.545-7.653-1.545-4 0-7.676 1.036-11.026 3.108-3.35 2.071-6.031 5.184-8.043 9.339-2.013 4.155-3.019 9.357-3.019 15.607 0 6.085.977 11.216 2.93 15.394 1.953 4.179 4.605 7.34 7.954 9.482 3.35 2.143 7.097 3.214 11.24 3.214zm4.794-12.039c-2.486 0-4.575-.68-6.268-2.041-1.693-1.362-2.983-3.256-3.87-5.682-.888-2.427-1.332-5.226-1.332-8.399 0-3.148.438-5.918 1.314-8.31.876-2.39 2.166-4.26 3.87-5.61 1.705-1.35 3.8-2.024 6.286-2.024 2.438 0 4.51.65 6.214 1.953 1.705 1.302 3.007 3.148 3.907 5.54.9 2.39 1.349 5.208 1.349 8.451 0 3.244-.456 6.073-1.367 8.487-.912 2.415-2.214 4.291-3.906 5.629-1.693 1.338-3.759 2.006-6.197 2.006zm63.487 12.216c4.498 0 8.47-.692 11.914-2.077 3.445-1.385 6.262-3.326 8.452-5.824 2.19-2.498 3.64-5.427 4.35-8.789l-13.992-.923c-.52 1.373-1.278 2.533-2.272 3.48-.995.947-2.19 1.657-3.587 2.13-1.397.474-2.936.71-4.616.71-2.534 0-4.723-.532-6.57-1.597-1.847-1.066-3.273-2.58-4.28-4.546-1.005-1.965-1.508-4.297-1.508-6.995l-.001-.035 37.146-.001v-4.155c0-4.64-.652-8.694-1.954-12.162-1.302-3.469-3.119-6.351-5.45-8.647-2.333-2.297-5.055-4.02-8.168-5.167-3.113-1.149-6.47-1.723-10.068-1.723-5.35 0-10.008 1.184-13.973 3.551-3.966 2.368-7.038 5.67-9.216 9.908-2.178 4.238-3.267 9.162-3.267 14.773 0 5.753 1.09 10.73 3.267 14.932 2.178 4.203 5.286 7.446 9.322 9.73 4.037 2.285 8.86 3.427 14.471 3.427zM510.377 70.87c.133-1.822.63-3.497 1.492-5.026a11.334 11.334 0 014.137-4.226c1.763-1.053 3.793-1.58 6.09-1.58 2.202 0 4.137.48 5.806 1.438a10.336 10.336 0 013.924 3.96c.947 1.68 1.42 3.61 1.42 5.788l-22.89.001.021-.355zm71.634 34.196c5.516 0 10.28-1.177 14.293-3.533s7.108-5.646 9.286-9.872 3.267-9.133 3.267-14.72c0-5.634-1.089-10.564-3.267-14.79-2.178-4.226-5.273-7.517-9.286-9.872-4.013-2.356-8.777-3.534-14.293-3.534-5.517 0-10.28 1.178-14.294 3.534-4.013 2.355-7.108 5.646-9.286 9.872s-3.267 9.156-3.267 14.79c0 5.587 1.089 10.494 3.267 14.72 2.178 4.226 5.273 7.516 9.286 9.872s8.777 3.533 14.294 3.533zm.07-11.718c-2.533 0-4.657-.717-6.374-2.149-1.716-1.432-3.006-3.391-3.87-5.877-.865-2.486-1.297-5.315-1.297-8.487 0-3.173.432-6.002 1.297-8.487.864-2.486 2.154-4.451 3.87-5.895 1.717-1.444 3.841-2.166 6.375-2.166 2.51 0 4.604.722 6.285 2.166s2.953 3.409 3.818 5.895c.864 2.485 1.296 5.314 1.296 8.487 0 3.172-.432 6.001-1.296 8.487-.865 2.486-2.137 4.445-3.818 5.877-1.68 1.432-3.776 2.149-6.285 2.149z"
            ></path>
          </g>
        </g>
      </g>
    </svg>